nColumns=28
nRows=15
DataType=double
version=3
OpenSimVersion=4.5
endheader
time	ground_force_1_vx	ground_force_1_vy	ground_force_1_vz	ground_force_1_px	ground_force_1_py	ground_force_1_pz	ground_moment_1_mx	ground_moment_1_my	ground_moment_1_mz	ground_force_2_vx	ground_force_2_vy	ground_force_2_vz	ground_force_2_px	ground_force_2_py	ground_force_2_pz	ground_moment_2_mx	ground_moment_2_my	ground_moment_2_mz	ground_force_3_vx	ground_force_3_vy	ground_force_3_vz	ground_force_3_px	ground_force_3_py	ground_force_3_pz	ground_moment_3_mx	ground_moment_3_my	ground_moment_3_mz
2.662	-20.67597396671772	139.9252265691757	7.553214672952899	0.3003271487801727	1.268718079702032e-17	-0.2071973863134028	0	1.295635272578423	7.933477947127871e-17	-2.059966791421175	2.899211831390858	2.670327667146921	1.106263081813232	-5.156411716378233e-18	0.08421059394379386	0	1.614242912092078	9.88438707669933e-17	0.07629627361893654	0.4577683284878732	-1.602198462933302	2.202002034484512	1.632870703946292e-17	-0.266668022989675	0	-1.093567478383866	-6.696169560272221e-17
2.663	-20.52338421344757	142.3666775226593	7.248034235090026	0.2996784516927138	1.262711938534779e-17	-0.206216509023488	0	1.128954560643533	6.912852945374543e-17	-1.144425477832556	2.899211831390858	2.822917886078358	1.327315890915691	-1.289102929094557e-18	0.02105264848594845	0	1.982868942522507	1.214157051794443e-16	0.2288864925503731	-1.068133860826492	-0.2288864925503731	0.9448590112477112	2.099389936586976e-17	-0.3428563955009155	0	0.1831081296699017	1.121213924490518e-17
2.664	-19.91302147507668	143.5873955488205	6.027312483638534	0.3022316635804926	1.259785462665476e-17	-0.2057385792446586	0	1.020716241922762	6.250084392542128e-17	-1.144425477832556	2.288850955665112	2.059966791421175	1.120999918620951	-9.797184359238057e-18	0.1600001627580987	0	1.254290593787952	7.680314804415243e-17	0.5340669304132462	-0.152592547237873	-0.9918375872075558	-2.397935915041655	-2.449256226180844e-17	0.3999938966706338	0	3.433223116132896	2.102242849965426e-16
2.665	-20.37079259753227	143.2822197675705	5.874722264707097	0.3009584615507014	1.252035085320097e-17	-0.2044728465696089	0	1.264938353918933	7.745513531227717e-17	0.07629627361893654	1.678490079939365	2.975508105009794	1.473727651039109	-1.558643542792099e-17	0.2545458076365018	0	2.058580325347513	1.260516903112274e-16	0.9918375872075558	-1.068133860826492	-0.3814767114818097	1.116287208998169	1.399593291057984e-17	-0.2285709303339437	0	0.2441434189677238	1.494947282858571e-17
2.666	-19.91302147507668	142.9770290851593	7.400624454021463	0.3022411905137099	1.252093546807236e-17	-0.2044823940550031	0	1.048865960144943	6.422451704130602e-17	-1.907376572489738	2.288850955665112	1.449605915695429	1.120999918620951	-1.63286405987301e-18	0.02666669379301646	0	1.094579568339715	6.702366823896615e-17	-0.8392450399696827	-0.7629534229636192	-0.3814767114818097	0.602003662042321	9.79714449512278e-18	-0.1599995117276905	0	0.354008972642987	2.167679776083385e-17
2.667	-19.91302147507668	144.1977620124817	6.17990270256997	0.3003174554621973	1.26741226118187e-17	-0.2069841299653569	0	1.030201539463426	6.308165088902802e-17	-1.297015696763992	2.594031393527985	2.059966791421175	1.165705850674249	-1.440762233346977e-18	0.02352943288383381	0	1.132757022693268	6.936136310264979e-17	0.3814767114818096	0.152587890625	0.07629394531250001	3.602027465820313	7.347992914647225e-17	-1.200018310546875	0	0.6103683264342408	3.737428086343099e-17
2.668	-20.21820284426212	143.2822197675705	6.942853797227153	0.3022364167848872	1.252035085320097e-17	-0.2044728465696089	0	1.687510874943649	1.033302395763045e-16	-0.6866548210382462	1.983670517802238	4.04363963752985	1.431769501631494	-2.260889052110709e-17	0.3692312026103899	0	2.834656522417231	1.735726518430215e-16	0.9918375872075558	-1.068133860826492	-0.9918375872075559	0.6877167146220247	1.74949161382248e-17	-0.2857136629174296	0	0.686653656888073	4.204541015154017e-17
2.669	-18.99748109281063	140.2304023504257	7.248034235090026	0.2977149023829569	1.257961478795552e-17	-0.2054407000730976	0	1.184723960088641	1.570000141897851e-17	-1.907376572489738	3.204392269253731	2.975508105009794	1.258142898662768	0	0	0	1.787484547465473	1.094518614789473e-16	0.3814767114818096	0.4577683284878731	-0.228886492550373	1.802	0	0	0	-0.1220731064677238	-7.474821954883602e-18
2.67	-19.91302147507668	141.7563110589981	7.248034235090026	0.2958019325709114	1.24969341728763e-17	-0.2040904231583694	0	1.238542667655236	7.583886567757043e-17	-2.059966791421175	2.899211831390858	2.670327667146921	1.232578972728923	0	0	0	1.549191374997337	9.486061293285874e-17	0.3814767114818096	-2.899216488003731	-0.6866571493446829	1.296737247872638	1.546921030302892e-17	-0.2526313760636811	0	0.1839109640977043	1.126129867551787e-17
2.671	-20.67597396671772	143.5873955488205	6.485083140432844	0.2984059462460877	1.25197687518544e-17	-0.2044633401331903	0	0.9731392186977728	5.958759146514918e-17	-2.822917886078358	3.509572707116604	2.670327667146921	1.122739078515275	0	0	0	1.545804282491872	9.465321333309709e-17	-0.2288841642439365	1.373309642076492	-0.534066930413246	1.935333559386402	1.360720972679001e-17	-0.2222225989773359	0	-0.3509585383453401	-2.149001253090272e-17
2.672	-19.15007084608078	140.2304023504257	6.942853797227153	0.2957562515520892	1.257961478795552e-17	-0.2054407000730976	0	0.9878842430219421	6.049046380724637e-17	-2.059966791421175	2.899211831390858	2.822917886078358	1.264157945457846	-1.289102929094557e-18	0.02105264848594845	0	1.915407949449801	1.172849107177547e-16	-0.2288841642439365	-1.373314298689365	-0.6866571493446828	1.268667570875873	1.905002902274337e-17	-0.3111105836557404	0	0.1576761111470927	9.65487724091447e-18
2.673	-19.15007084608078	144.8081135749817	6.17990270256997	0.2984193839610336	1.24916556473593e-17	-0.2040042182947194	1.13686837721616e-16	0.989311576862679	6.057786279821503e-17	-1.449605915695429	3.204392269253731	1.907376572489739	1.401000145319689	0	0	0	1.861599783989677	1.139901108378181e-16	0.6866571493446827	-1.373314298689365	0.2288841642439365	1.402000678156905	1.088573087013907e-17	-0.1777774763747088	0	0.03051773334437647	1.868672222871154e-18
2.674	-18.53970997035503	136.8734240531921	7.400624454021462	0.2996655467305795	1.242395324616779e-17	-0.2028985541760747	0	1.156878374456768	7.083836991406372e-17	-1.144425477832556	2.899211831390858	2.059966791421175	1.201	-3.867308787283675e-18	0.06315794545784542	1.13686837721616e-16	1.766030060725888	1.081381530532982e-16	0.2288864925503731	-0.152592547237873	-1.144427806138992	0.002027464982147649	0	0	0	1.647944096923468	7.248576374315103e-17
2.675	-18.38712021708488	138.3993327617645	7.09544401615859	0.3003307556927771	1.24219963993364e-17	-0.2028665964420937	0	0.9338449679682801	5.718151254611084e-17	-0.2288841642439365	4.11993358284235	2.975508105009795	1.178777765219288	-9.071462898033229e-19	0.0148148231871412	0	1.264802412103095	7.744681127679536e-17	0.3814767114818096	-1.678494736552238	-0.6866571493446828	1.311091590050325	1.781301964205587e-17	-0.290908687377585	0	0.09710222390278668	5.945796384631866e-18
2.676	-18.53970997035503	138.3993327617645	6.485083140432844	0.2957001053368594	1.24760050768254e-17	-0.2037486250813162	0	1.207262426437047	7.39235033133498e-17	-1.297015696763992	5.035474896430969	2.822917886078358	1.073727213878819	-7.422105244850938e-19	0.01212121772582674	0	1.334932262225012	8.174102610061981e-17	0.5340669304132462	0.1525878906250001	-1.449608244001865	3.002018310546875	0	0	0	-2.075255848893676	-1.270727716379732e-16
